<svg width="633" height="99" viewBox="0 0 633 99" fill="none" xmlns="http://www.w3.org/2000/svg">
<path fill-rule="evenodd" clip-rule="evenodd" d="M610.58 96.0001H631.67V2.90918H606.398V51.6365H605.67L572.58 2.90918H551.125V96.0001H576.398V47.091H576.943L610.58 96.0001ZM577.398 49.5167V97.0001H550.125V1.90918H573.109L605.398 49.4548V1.90918H632.67V97.0001H610.054L577.398 49.5167Z" fill="white"/>
<path fill-rule="evenodd" clip-rule="evenodd" d="M460.632 96.0001L466.011 78.1819H496.707L502.086 96.0001H529.359L498.632 2.90918H464.086L433.359 96.0001H460.632ZM471.719 59.2728H490.999L481.723 28.5455H480.996L471.719 59.2728ZM481.359 30.8011L473.066 58.2728H489.653L481.359 30.8011ZM495.965 79.1819L501.344 97.0001H530.742L499.355 1.90918H463.363L431.976 97.0001H461.375L466.754 79.1819H495.965Z" fill="white"/>
<path fill-rule="evenodd" clip-rule="evenodd" d="M335.854 2.90918H304.4V96.0001H329.127V41.8183H329.854L350.582 95.2728H365.491L386.218 42.1819H386.945V96.0001H411.673V2.90918H380.218L358.582 55.6365H357.491L335.854 2.90918ZM358.036 54.3315L336.525 1.90918H303.4V97.0001H330.127V45.2876L349.897 96.2728H366.174L385.945 45.6302V97.0001H412.673V1.90918H379.548L358.036 54.3315Z" fill="white"/>
<path fill-rule="evenodd" clip-rule="evenodd" d="M206.1 96.0001H231.373V65.2728H240.119L256.464 96.0001H283.918L265.013 61.2918C265.316 61.1466 265.614 60.9976 265.909 60.8448C270.313 58.5579 273.801 55.4127 276.373 51.4092C279.343 46.8334 280.827 41.2122 280.827 34.5455C280.827 27.9395 279.388 22.2728 276.509 17.5455C273.63 12.8183 269.6 9.19706 264.418 6.68191C259.236 4.16676 253.191 2.90918 246.282 2.90918H206.1V96.0001ZM231.373 45.6365H240.282C243.252 45.6365 245.782 45.2728 247.873 44.5455C249.994 43.788 251.615 42.591 252.736 40.9546C253.888 39.3183 254.464 37.1819 254.464 34.5455C254.464 31.8789 253.888 29.7122 252.736 28.0455C251.615 26.3486 249.994 25.1062 247.873 24.3183C245.782 23.5001 243.252 23.091 240.282 23.091H231.373V45.6365ZM232.373 24.091V44.6365H240.282C243.174 44.6365 245.585 44.2819 247.541 43.6023C249.489 42.9056 250.926 41.8279 251.912 40.3894L251.919 40.3791C252.919 38.9574 253.464 37.0407 253.464 34.5455C253.464 32.0185 252.918 30.068 251.914 28.614L251.908 28.6055L251.902 28.5968C250.911 27.0967 249.47 25.9784 247.525 25.2557L247.517 25.2527L247.508 25.2495C245.564 24.4888 243.165 24.091 240.282 24.091H232.373ZM277.212 51.9523C280.308 47.1819 281.827 41.3616 281.827 34.5455C281.827 27.7918 280.355 21.9374 277.363 17.0254C274.38 12.1273 270.202 8.37766 264.855 5.78228C259.513 3.18919 253.312 1.90918 246.282 1.90918H205.1V97.0001H232.373V66.2728H239.519L255.863 97.0001H285.602L266.387 61.7231C270.927 59.362 274.544 56.1054 277.212 51.9523Z" fill="white"/>
<path fill-rule="evenodd" clip-rule="evenodd" d="M113.675 96.0001H180.584V75.6365H138.948V59.6365H177.311V39.2728H138.948V23.2728H180.766V2.90918H113.675V96.0001ZM139.948 24.2728H181.766V1.90918H112.675V97.0001H181.584V74.6365H139.948V60.6365H178.311V38.2728H139.948V24.2728Z" fill="white"/>
<path fill-rule="evenodd" clip-rule="evenodd" d="M61.6703 34.6365L61.4834 33.8747C61.1155 32.3747 60.5414 31.0822 59.7718 29.9827L59.7652 29.9732C58.9902 28.8385 58.0223 27.8834 56.8545 27.1049L56.843 27.0972L56.8317 27.0893C55.7014 26.2898 54.3622 25.6853 52.7989 25.2874L52.7884 25.2847L52.7779 25.2818C51.2413 24.855 49.5298 24.6365 47.6365 24.6365C43.5595 24.6365 40.1422 25.6096 37.3347 27.5092C34.5505 29.4134 32.3927 32.1699 30.8804 35.8327C29.3964 39.5005 28.6365 43.9711 28.6365 49.2728C28.6365 54.6414 29.3678 59.1802 30.7977 62.9153C32.2227 66.6379 34.3225 69.4341 37.0741 71.3631C39.8119 73.2824 43.2514 74.2728 47.4547 74.2728C51.2142 74.2728 54.2629 73.724 56.6425 72.6759L56.6464 72.6741C59.0661 71.6209 60.8183 70.1534 61.9675 68.2928C62.9085 66.7693 63.4801 65.0119 63.663 63.0001H46.8183V43.0001H90.091V56.9092C90.091 65.5372 88.2566 72.9804 84.5402 79.1952C80.8666 85.3587 75.7861 90.0947 69.3178 93.3911L69.3161 93.3919C62.883 96.6551 55.5269 98.2728 47.2728 98.2728C38.0672 98.2728 29.939 96.3166 22.9193 92.3719C15.9008 88.4279 10.4195 82.8032 6.484 75.521L6.48243 75.5181C2.57127 68.2235 0.636475 59.5844 0.636475 49.6365C0.636475 41.8395 1.81826 34.8935 4.20572 28.8163L4.20734 28.8122C6.61751 22.7559 9.9639 17.6203 14.2538 13.4232C18.5333 9.20594 23.4832 6.02486 29.0961 3.8848C34.7028 1.71674 40.704 0.636475 47.091 0.636475C52.701 0.636475 57.9289 1.43788 62.7675 3.0503C67.6261 4.62904 71.928 6.8937 75.6629 9.84974C79.4275 12.775 82.4682 16.2511 84.7766 20.2753C87.0914 24.3104 88.4961 28.7334 88.9948 33.5331L89.1094 34.6365H61.6703ZM75.0456 10.6365C71.4092 7.75769 67.2122 5.54557 62.4547 4.00011C57.7274 2.42435 52.6062 1.63647 47.091 1.63647C40.8183 1.63647 34.9395 2.69708 29.4547 4.81829C23.9698 6.9092 19.1365 10.0153 14.9547 14.1365C10.7728 18.2274 7.50011 23.2425 5.13647 29.1819C2.80314 35.1213 1.63647 41.9395 1.63647 49.6365C1.63647 59.4547 3.54557 67.9244 7.36375 75.0456C11.2122 82.1668 16.5607 87.6516 23.4092 91.5001C30.2577 95.3486 38.2122 97.2728 47.2728 97.2728C55.3941 97.2728 62.591 95.6819 68.8638 92.5001C75.1668 89.288 80.1062 84.6819 83.6819 78.6819C87.288 72.6516 89.091 65.3941 89.091 56.9092V44.0001H47.8183V62.0001H64.7217C64.717 62.1844 64.7095 62.367 64.6991 62.548C64.6903 62.6999 64.6796 62.8506 64.6669 63.0001C64.4806 65.1852 63.8644 67.1246 62.8183 68.8183C61.5456 70.8789 59.6213 72.4698 57.0456 73.591C54.5001 74.7122 51.3031 75.2728 47.4547 75.2728C43.091 75.2728 39.4395 74.2425 36.5001 72.1819C33.5607 70.1213 31.3486 67.1516 29.8637 63.2728C28.3789 59.3941 27.6365 54.7274 27.6365 49.2728C27.6365 43.8789 28.4092 39.2728 29.9547 35.4547C31.5304 31.6365 33.8031 28.7122 36.7728 26.6819C39.7728 24.6516 43.3941 23.6365 47.6365 23.6365C49.6062 23.6365 51.4092 23.8637 53.0456 24.3183C54.7122 24.7425 56.1668 25.3941 57.4092 26.2728C58.6819 27.1213 59.7425 28.1668 60.591 29.4092C61.4395 30.6213 62.0607 32.0304 62.4547 33.6365H88.0001C87.9653 33.3012 87.9259 32.9679 87.882 32.6365C87.3148 28.3556 85.9905 24.4011 83.9092 20.7728C81.6668 16.8638 78.7122 13.485 75.0456 10.6365Z" fill="white"/>
</svg>
